<?xml version="1.0" standalone="no"?>
<!DOCTYPE svg PUBLIC "-//W3C//DTD SVG 20010904//EN"
 "http://www.w3.org/TR/2001/REC-SVG-20010904/DTD/svg10.dtd">
<svg version="1.0" xmlns="http://www.w3.org/2000/svg"
 width="900.000000pt" height="900.000000pt" viewBox="0 0 900.000000 900.000000"
 preserveAspectRatio="xMidYMid meet">
<metadata>
Created by potrace 1.14, written by Peter Selinger 2001-2017
</metadata>
<g transform="translate(0.000000,900.000000) scale(0.100000,-0.100000)"
fill="#000000" stroke="none">
<path d="M4597 8223 c81 -520 260 -1001 545 -1468 570 -931 1459 -1659 2433
-1992 188 -64 458 -130 608 -148 56 -7 57 -7 57 18 0 40 -23 54 -127 77 -226
50 -284 64 -408 102 -194 60 -464 169 -650 263 -92 47 -178 93 -193 103 -15
11 -43 28 -62 39 -141 77 -577 394 -650 472 -9 9 -57 54 -108 100 -148 134
-320 314 -458 481 -62 75 -90 111 -194 250 -49 66 -177 265 -237 370 -214 372
-377 800 -453 1185 -7 37 -22 74 -39 95 -16 19 -31 45 -35 58 -11 33 -34 28
-29 -5z"/>
<path d="M3950 8214 c-8 -2 -80 -15 -160 -29 -503 -90 -931 -262 -1390 -561
-181 -117 -429 -324 -595 -495 -579 -597 -936 -1342 -1035 -2158 -15 -118 -10
-124 103 -140 836 -119 1700 -539 2388 -1162 583 -529 1021 -1146 1294 -1824
132 -329 215 -628 260 -939 20 -144 12 -140 218 -111 1014 145 1916 693 2519
1531 248 346 462 801 563 1201 57 226 109 543 92 560 -4 4 -17 -2 -28 -14 -15
-14 -28 -59 -49 -159 -84 -413 -193 -737 -360 -1069 -291 -579 -707 -1052
-1246 -1412 -107 -72 -349 -212 -426 -246 -29 -14 -78 -36 -108 -50 -266 -122
-628 -229 -926 -274 -134 -20 -161 -15 -168 30 -123 804 -446 1527 -985 2207
-42 52 -78 97 -81 100 -3 3 -34 39 -70 80 -134 156 -388 408 -554 550 -16 14
-45 39 -65 56 -152 129 -475 354 -681 474 -275 160 -498 260 -855 385 -146 51
-429 123 -590 150 -158 26 -145 20 -145 66 0 106 108 664 140 721 6 10 10 26
10 36 0 10 11 51 24 90 14 40 22 72 19 72 -3 0 2 11 10 24 9 13 13 33 10 45
-3 12 -1 21 6 21 6 0 11 10 11 23 0 25 111 257 185 387 247 432 635 856 1064
1163 329 236 722 426 1121 542 121 35 398 98 484 110 35 5 45 9 35 16 -8 5
-16 8 -19 8 -3 -1 -12 -3 -20 -5z"/>
<path d="M750 4337 c-1 -241 75 -659 176 -969 256 -785 749 -1449 1437 -1936
416 -294 948 -517 1462 -611 218 -40 565 -72 565 -53 0 31 -71 62 -142 62 -56
0 -329 37 -446 60 -231 45 -501 127 -707 215 -783 332 -1404 896 -1809 1641
-221 407 -377 919 -416 1364 -14 154 -22 186 -57 227 -16 18 -36 42 -45 55
-17 22 -17 21 -18 -55z"/>
</g>
</svg>
